<svg width="26" height="25" viewBox="0 0 26 25" fill="none" xmlns="http://www.w3.org/2000/svg">
<g clip-path="url(#clip0_47_11)">
<path d="M13.0043 6.0813C9.31771 6.0813 6.33313 8.95422 6.33313 12.4959C6.33313 16.0407 9.32096 18.9105 13.0043 18.9105C16.6909 18.9105 19.6755 16.0375 19.6755 12.4959C19.6755 8.95109 16.6876 6.0813 13.0043 6.0813ZM13.0043 16.6594C10.6112 16.6594 8.67421 14.7959 8.67421 12.4959C8.67421 10.1959 10.6123 8.33234 13.0043 8.33234C15.3963 8.33234 17.3344 10.1959 17.3344 12.4959C17.3355 14.7959 15.3974 16.6594 13.0043 16.6594Z" fill="#84A4A1"/>
<path d="M18.3602 0.0793823C15.9682 -0.0279094 10.0435 -0.0227011 7.6493 0.0793823C5.54546 0.174174 3.68971 0.662715 2.19363 2.10126C-0.306703 4.50542 0.01288 7.74501 0.01288 12.4961C0.01288 17.3586 -0.268787 20.5231 2.19363 22.8908C4.70371 25.3033 8.12163 24.9877 13.0042 24.9877C18.0135 24.9877 19.7425 24.9908 21.5138 24.3315C23.922 23.4325 25.7399 21.3627 25.9175 17.645C26.0302 15.344 26.0237 9.64813 25.9175 7.34605C25.703 2.95751 23.2536 0.296049 18.3602 0.0793823V0.0793823ZM22.1465 21.3002C20.5074 22.8763 18.2335 22.7356 12.9728 22.7356C7.55613 22.7356 5.38405 22.8127 3.79913 21.2846C1.97371 19.5377 2.30413 16.7325 2.30413 12.4794C2.30413 6.72417 1.68988 2.57938 7.69696 2.28355C9.07713 2.23667 9.48338 2.22105 12.9576 2.22105L13.0064 2.2523C18.7795 2.2523 23.3089 1.67105 23.5808 7.44605C23.6425 8.76376 23.6566 9.15959 23.6566 12.495C23.6555 17.6429 23.7574 19.744 22.1465 21.3002V21.3002Z" fill="#84A4A1"/>
<path d="M19.9398 7.32714C20.8007 7.32714 21.4987 6.65603 21.4987 5.82818C21.4987 5.00033 20.8007 4.32922 19.9398 4.32922C19.0788 4.32922 18.3809 5.00033 18.3809 5.82818C18.3809 6.65603 19.0788 7.32714 19.9398 7.32714Z" fill="#84A4A1"/>
</g>
<defs>
<clipPath id="clip0_47_11">
<rect width="26" height="25" fill="white"/>
</clipPath>
</defs>
</svg>
