<svg width="171" height="171" viewBox="0 0 171 171" fill="none" xmlns="http://www.w3.org/2000/svg">
<circle cx="85.5" cy="85.5" r="85.5" fill="#F8F6F4"/>
<path fill-rule="evenodd" clip-rule="evenodd" d="M130.843 158C117.7 166.238 102.156 171 85.5007 171C68.8451 171 53.3017 166.238 40.1582 158C53.3017 149.762 68.8451 145 85.5007 145C102.156 145 117.7 149.762 130.843 158Z" fill="#84A4A1"/>
<g clip-path="url(#clip0_1_972)">
<path d="M120.741 105.548H118.553V65.2838C118.553 64.1449 118.307 63.0225 117.837 61.9975C118.443 61.0613 118.797 59.9468 118.797 58.7504V47.6681C118.797 44.366 116.111 41.6796 112.809 41.6796H90.9723C87.6701 41.6796 84.9837 44.366 84.9837 47.6681V52.2871H78.0617C77.4388 52.2871 76.9337 52.7921 76.9337 53.415C76.9337 54.0379 77.4388 54.5429 78.0617 54.5429H84.9837V58.7504C84.9837 62.0525 87.6701 64.739 90.9723 64.739H94.4899V68.5649C94.4899 69.756 95.2647 70.7565 96.4181 71.0545C96.6402 71.1119 96.8626 71.1396 97.0811 71.1396C97.997 71.1396 98.8445 70.6516 99.3101 69.8104L100.156 68.2816C100.543 68.5872 100.895 68.9364 101.206 69.3292C102.109 70.4687 102.586 71.8401 102.586 73.2953C102.586 74.852 102.017 76.3538 100.985 77.5241C100.758 77.7814 100.66 78.1282 100.72 78.4662C100.78 78.8042 100.99 79.0966 101.291 79.2608C102.445 79.8889 103.413 80.8141 104.094 81.9372C104.795 83.091 105.165 84.4189 105.165 85.7779C105.165 89.8661 101.839 93.1921 97.7508 93.1921H93.1753C92.2444 91.4337 90.768 89.9918 88.9894 89.1034V88.1306C93.2755 86.4129 96.1003 82.281 96.1003 77.6017C96.1003 76.9788 95.5953 76.4738 94.9724 76.4738C89.9592 76.4738 85.8806 72.3953 85.8806 67.3821V66.6097C85.8806 66.1591 85.6125 65.7518 85.1988 65.5736C84.7852 65.3956 84.305 65.4807 83.9776 65.7902C83.1775 66.5471 82.1296 66.964 81.0269 66.964C79.7979 66.964 78.6256 66.437 77.8104 65.5183C77.5935 65.2739 77.2815 65.1304 76.955 65.139C76.6285 65.1423 76.3193 65.2871 76.1077 65.5359C74.3649 67.5837 73.4051 70.1939 73.4051 72.8853V74.3274C71.7149 74.7452 70.4579 76.2748 70.4579 78.0923C70.4579 80.2111 72.1659 81.9385 74.2774 81.9697C75.4459 84.7666 77.7053 86.9971 80.5167 88.1298V89.1031C78.738 89.9913 77.2616 91.4334 76.3308 93.1918H71.7558C69.7747 93.1918 67.9132 92.4206 66.5133 91.0193C65.1129 89.6202 64.3415 87.7586 64.3415 85.7775C64.3415 83.0591 65.8259 80.562 68.2152 79.2607C68.5164 79.0966 68.7265 78.8044 68.7863 78.4668C68.8462 78.1291 68.7489 77.7825 68.5224 77.525C68.0156 76.9492 67.6201 76.2993 67.347 75.5937C67.0641 74.863 66.9207 74.0896 66.9207 73.2953C66.9207 70.3514 68.9137 67.8003 71.7675 67.0915C72.1534 66.9957 72.4604 66.7037 72.5754 66.323C72.6905 65.9424 72.5965 65.5293 72.328 65.2358C71.8039 64.6626 71.3931 64.0052 71.1076 63.2848C70.8132 62.5357 70.664 61.745 70.664 60.9347C70.664 60.2316 70.7766 59.5421 70.9986 58.8853C71.4576 57.5282 72.3754 56.35 73.5827 55.568C74.1057 55.2293 74.2548 54.5309 73.9162 54.0081C73.5775 53.4852 72.8789 53.3362 72.3563 53.6747C70.956 54.5819 69.8449 55.8846 69.1647 57.3961H60.3368C55.9873 57.3961 52.4488 60.9347 52.4488 65.2841V105.548H50.259C48.4619 105.548 47 107.01 47 108.807V108.985C47 112.478 49.843 115.321 53.3375 115.321H103.729C104.352 115.321 104.857 114.816 104.857 114.193C104.857 113.57 104.352 113.065 103.729 113.065H53.3375C51.0869 113.065 49.2559 111.234 49.2559 108.985V108.807C49.2559 108.254 49.7058 107.804 50.259 107.804H53.5766H117.425H120.741C121.294 107.804 121.744 108.254 121.744 108.807V108.985C121.744 111.234 119.914 113.065 117.664 113.065H108.987C108.364 113.065 107.859 113.57 107.859 114.193C107.859 114.816 108.364 115.321 108.987 115.321H117.664C121.158 115.321 124 112.478 124 108.985V108.807C124 107.01 122.538 105.548 120.741 105.548ZM97.3365 68.7177C97.2581 68.8594 97.1387 68.9103 96.9822 68.8702C96.8253 68.8296 96.7458 68.7269 96.7458 68.5647V63.6109C96.7458 62.988 96.2407 62.4829 95.6178 62.4829H90.9723C88.914 62.4829 87.2396 60.8085 87.2396 58.7503V47.6681C87.2396 45.6099 88.914 43.9354 90.9723 43.9354H112.809C114.867 43.9354 116.541 45.6099 116.541 47.6681V58.7503C116.541 60.8085 114.867 62.4829 112.809 62.4829H101.453C101.043 62.4829 100.665 62.7057 100.466 63.0647L97.3365 68.7177ZM107.421 85.7775C107.421 84.0058 106.937 82.2729 106.023 80.767C105.361 79.675 104.489 78.726 103.465 77.9745C104.359 76.5857 104.842 74.9639 104.842 73.2951C104.842 71.3261 104.196 69.4701 102.974 67.9284C102.476 67.2992 101.901 66.7519 101.26 66.2886L102.118 64.7388H111.644C111.736 64.9029 111.785 65.0883 111.785 65.2838V99.8797C111.785 100.517 111.266 101.036 110.627 101.036H94.2738V97.6285C94.2738 96.8859 94.187 96.1572 94.0205 95.4477H97.7508C103.083 95.4477 107.421 91.1096 107.421 85.7775ZM76.128 80.4846C75.9743 80.0244 75.5434 79.7141 75.0582 79.7141H74.3358C73.4414 79.7141 72.7138 78.9865 72.7138 78.0921C72.7138 77.1978 73.4414 76.4702 74.3358 76.4702H74.5331C75.156 76.4702 75.661 75.9652 75.661 75.3422V72.885C75.661 71.1206 76.1756 69.4 77.1276 67.9342C78.2468 68.7616 79.6122 69.2197 81.0269 69.2197C81.9588 69.2197 82.865 69.0243 83.6956 68.6538C84.2862 73.9239 88.5015 78.1145 93.7828 78.6672C93.3737 82.1864 90.9595 85.165 87.5185 86.263C87.051 86.4122 86.7335 86.8467 86.7335 87.3376V89.7931C86.7335 90.8851 85.8451 91.7735 84.7532 91.7735C83.6612 91.7735 82.7728 90.8851 82.7728 89.7931V87.338C82.7728 86.8471 82.4553 86.4125 81.9876 86.2633C79.2344 85.3856 77.044 83.2253 76.128 80.4846ZM80.8722 91.4891C81.5274 92.9831 83.0201 94.0296 84.7532 94.0296C86.4863 94.0296 87.9787 92.9831 88.6341 91.4891C89.8639 92.271 90.853 93.4162 91.4325 94.7646C91.8211 95.6687 92.0181 96.6323 92.0181 97.6285V101.036H77.4884V97.6285C77.4884 96.6323 77.6854 95.6687 78.074 94.7646C78.6533 93.4162 79.6424 92.271 80.8722 91.4891ZM64.6649 73.2951C64.6649 74.3691 64.8595 75.4162 65.2433 76.4078C65.4559 76.957 65.7227 77.4807 66.0414 77.9742C63.5741 79.7819 62.0858 82.6687 62.0858 85.7775C62.0858 88.3616 63.0919 90.7899 64.9183 92.6143C66.7436 94.4414 69.1719 95.4475 71.756 95.4475H75.4859C75.3195 96.1571 75.2327 96.8857 75.2327 97.6283V101.036H60.3727C59.7342 101.036 59.2147 100.517 59.2147 99.8795V65.2837C59.2147 64.6659 59.7181 64.1633 60.3366 64.1633H69.0306C69.2107 64.6101 69.4255 65.0387 69.6748 65.4456C66.66 66.8377 64.6649 69.87 64.6649 73.2951ZM54.7045 105.548V65.2838C54.7045 62.1783 57.2311 59.6517 60.3366 59.6517H68.5041C68.4412 60.0743 68.4081 60.5026 68.4081 60.9345C68.4081 61.2615 68.4284 61.5859 68.4644 61.9076H60.3366C58.4742 61.9076 56.9589 63.4221 56.9589 65.2838V99.8797C56.9589 101.761 58.4903 103.292 60.3727 103.292H110.627C112.51 103.292 114.041 101.761 114.041 99.8797V65.2838C114.041 65.0605 114.018 64.8397 113.975 64.6239C114.741 64.472 115.454 64.1733 116.086 63.7589C116.224 64.2523 116.297 64.7653 116.297 65.2838V105.548H54.7045Z" fill="#84A4A1"/>
<path d="M84.7532 82.5049C85.6418 82.5049 86.5303 82.2823 87.3405 81.8369C87.8864 81.5367 88.0857 80.8509 87.7855 80.305C87.4854 79.7592 86.7997 79.5598 86.2536 79.86C85.3141 80.3766 84.1922 80.3766 83.2527 79.86C82.7069 79.5597 82.021 79.7591 81.7208 80.305C81.4206 80.8509 81.6199 81.5367 82.1658 81.8369C82.9758 82.2822 83.8645 82.5049 84.7532 82.5049Z" fill="#84A4A1"/>
<path d="M82.8088 75.6695V73.7063C82.8088 73.0834 82.3038 72.5784 81.6809 72.5784C81.058 72.5784 80.553 73.0834 80.553 73.7063V75.6695C80.553 76.2924 81.058 76.7974 81.6809 76.7974C82.3038 76.7974 82.8088 76.2924 82.8088 75.6695Z" fill="#84A4A1"/>
<path d="M91.5625 48.376H107.516C108.139 48.376 108.644 47.871 108.644 47.2481C108.644 46.6252 108.139 46.1201 107.516 46.1201H91.5625C90.9396 46.1201 90.4346 46.6252 90.4346 47.2481C90.4346 47.871 90.9396 48.376 91.5625 48.376Z" fill="#84A4A1"/>
<path d="M91.5625 53.1843H107.516C108.139 53.1843 108.644 52.6793 108.644 52.0564C108.644 51.4334 108.139 50.9284 107.516 50.9284H91.5625C90.9396 50.9284 90.4346 51.4334 90.4346 52.0564C90.4346 52.6793 90.9396 53.1843 91.5625 53.1843Z" fill="#84A4A1"/>
<path d="M101.392 56.8645C101.392 56.2416 100.887 55.7366 100.264 55.7366H91.5625C90.9396 55.7366 90.4346 56.2416 90.4346 56.8645C90.4346 57.4874 90.9396 57.9924 91.5625 57.9924H100.264C100.887 57.9924 101.392 57.4874 101.392 56.8645Z" fill="#84A4A1"/>
</g>
<defs>
<clipPath id="clip0_1_972">
<rect width="77" height="77" fill="white" transform="translate(47 40)"/>
</clipPath>
</defs>
</svg>
