<svg width="171" height="171" viewBox="0 0 171 171" fill="none" xmlns="http://www.w3.org/2000/svg">
<circle cx="85.5" cy="85.5" r="85.5" fill="#F8F6F4"/>
<path fill-rule="evenodd" clip-rule="evenodd" d="M130.685 158C117.542 166.238 101.998 171 85.3425 171C68.6869 171 53.1435 166.238 40 158C53.1435 149.762 68.6869 145 85.3425 145C101.998 145 117.542 149.762 130.685 158Z" fill="#84A4A1"/>
<path d="M93.2031 97.6349V82.7963C93.524 82.9102 93.8691 82.9727 94.2285 82.9727C95.9246 82.9727 97.3047 81.5926 97.3047 79.8965V62.5332C97.3047 59.7061 95.0048 57.4062 92.1777 57.4062H77.8223C74.9952 57.4062 72.6953 59.7061 72.6953 62.5332V79.8965C72.6953 81.5926 74.0752 82.9727 75.7715 82.9727C76.1309 82.9727 76.476 82.91 76.7969 82.7963V102.899C76.7969 104.878 78.4069 106.488 80.3857 106.488C82.3646 106.488 83.9746 104.878 83.9746 102.899V98.711C84.6572 98.6911 85.3429 98.6911 86.0254 98.711V102.899C86.0254 104.878 87.6353 106.488 89.6143 106.488C91.5933 106.488 93.2031 104.878 93.2031 102.899V99.7629C96.6032 100.752 98.8086 102.32 98.8086 103.822C98.8086 106.247 93.1376 108.949 85 108.949C76.8624 108.949 71.1914 106.247 71.1914 103.822C71.1914 102.787 72.2764 101.667 74.1682 100.749C74.6777 100.502 74.8903 99.8886 74.6431 99.3792C74.396 98.8695 73.7828 98.6572 73.2731 98.9041C69.8576 100.561 69.1406 102.493 69.1406 103.822C69.1406 105.907 70.9083 107.789 74.118 109.12C77.0415 110.332 80.9061 111 85 111C89.0939 111 92.9587 110.332 95.8821 109.12C99.0917 107.789 100.859 105.907 100.859 103.822C100.859 101.183 98.014 98.9007 93.2031 97.6349ZM86.0254 96.6593C85.3426 96.6404 84.6572 96.6404 83.9746 96.6593V80.9219H86.0254V96.6593ZM92.1777 61.5078C91.6113 61.5078 91.1523 61.9668 91.1523 62.5332V102.899C91.1523 103.747 90.4623 104.438 89.6143 104.438C88.7662 104.438 88.0762 103.747 88.0762 102.899V79.8965C88.0762 79.3301 87.6172 78.8711 87.0508 78.8711H82.9492C82.3829 78.8711 81.9238 79.3301 81.9238 79.8965V102.899C81.9238 103.747 81.2338 104.438 80.3857 104.438C79.5377 104.438 78.8477 103.747 78.8477 102.899V62.5332C78.8477 61.9668 78.3886 61.5078 77.8223 61.5078C77.256 61.5078 76.7969 61.9668 76.7969 62.5332V79.8965C76.7969 80.462 76.337 80.9219 75.7715 80.9219C75.206 80.9219 74.7461 80.462 74.7461 79.8965V62.5332C74.7461 60.8371 76.126 59.457 77.8223 59.457H92.1777C93.8739 59.457 95.2539 60.8371 95.2539 62.5332V79.8965C95.2539 80.462 94.794 80.9219 94.2285 80.9219C93.663 80.9219 93.2031 80.462 93.2031 79.8965V62.5332C93.2031 61.9668 92.7442 61.5078 92.1777 61.5078Z" fill="#84A4A1"/>
<path d="M84.9551 55.3555C88.9128 55.3555 92.1328 52.1355 92.1328 48.1777C92.1328 44.22 88.9128 41 84.9551 41C80.9972 41 77.7773 44.22 77.7773 48.1777C77.7773 52.1355 80.9972 55.3555 84.9551 55.3555ZM84.9551 43.0508C87.7821 43.0508 90.082 45.3507 90.082 48.1777C90.082 51.0048 87.7821 53.3047 84.9551 53.3047C82.128 53.3047 79.8281 51.0048 79.8281 48.1777C79.8281 45.3507 82.128 43.0508 84.9551 43.0508Z" fill="#84A4A1"/>
</svg>
