<svg width="25" height="25" viewBox="0 0 25 25" fill="none" xmlns="http://www.w3.org/2000/svg">
<g clip-path="url(#clip0_47_15)">
<path d="M18.2365 14.9031L18.2271 14.9813C15.9365 13.8396 15.6969 13.6875 15.4011 14.1313C15.1959 14.4386 14.5979 15.1354 14.4177 15.3417C14.2354 15.5448 14.0542 15.5604 13.7448 15.4198C13.4323 15.2636 12.4292 14.9354 11.2417 13.8729C10.3167 13.0448 9.69585 12.0292 9.51252 11.7167C9.20731 11.1896 9.84585 11.1146 10.4271 10.0146C10.5313 9.79585 10.4781 9.62397 10.4011 9.46876C10.3229 9.31251 9.70106 7.78126 9.44065 7.17085C9.19065 6.56251 8.93335 6.6396 8.74065 6.6396C8.14065 6.58751 7.7021 6.59585 7.31565 6.99793C5.6344 8.84585 6.05835 10.7521 7.4969 12.7792C10.324 16.4792 11.8302 17.1604 14.5844 18.1063C15.3281 18.3427 16.0063 18.3094 16.5427 18.2323C17.1406 18.1375 18.3834 17.4813 18.6427 16.7469C18.9084 16.0125 18.9084 15.4031 18.8302 15.2625C18.7531 15.1219 18.549 15.0438 18.2365 14.9031Z" fill="#84A4A1"/>
<path d="M21.375 3.59255C13.3656 -4.15016 0.110417 1.46546 0.105208 12.3884C0.105208 14.5717 0.677083 16.7009 1.76667 18.5811L0 24.9998L6.59896 23.279C14.8333 27.7269 24.9958 21.8207 25 12.3946C25 9.0863 23.7083 5.97276 21.3594 3.63317L21.375 3.59255ZM22.9187 12.3603C22.9125 20.3113 14.1844 25.2769 7.28125 21.2186L6.90625 20.9957L3 22.0113L4.04687 18.2144L3.79792 17.8238C-0.497917 10.9853 4.4375 2.04776 12.575 2.04776C15.3396 2.04776 17.9344 3.12588 19.8885 5.07901C21.8417 7.01547 22.9187 9.61026 22.9187 12.3603V12.3603Z" fill="#84A4A1"/>
</g>
<defs>
<clipPath id="clip0_47_15">
<rect width="25" height="25" fill="white"/>
</clipPath>
</defs>
</svg>
